<svg xmlns="http://www.w3.org/2000/svg" viewBox="0 0 100 100" width="100" height="100">
  <!-- Background circle - warm cream -->
  <circle cx="50" cy="50" r="50" fill="#FEF3C7"/>

  <!-- Body: white shirt visible at collar, black waistcoat -->
  <path d="M16 100 Q16 72 36 67 L50 75 L64 67 Q84 72 84 100 Z" fill="white"/>
  <path d="M36 67 L50 75 L64 67 Q67 82 64 90 L50 87 L36 90 Q33 82 36 67 Z" fill="#111827"/>
  <!-- Vest V-lapels (white shirt showing through) -->
  <path d="M46 67 L50 75 L50 87 L44 87 Q36 80 36 67 Z" fill="#111827"/>
  <path d="M54 67 L50 75 L50 87 L56 87 Q64 80 64 67 Z" fill="#111827"/>
  <path d="M46 67 L50 71 L50 87 L47 87 Z" fill="white" opacity="0.15"/>
  <path d="M54 67 L50 71 L50 87 L53 87 Z" fill="white" opacity="0.15"/>

  <!-- Bow tie (red for classic Italian waiter look) -->
  <path d="M43 64 L50 67 L57 64 L50 61 Z" fill="#B91C1C"/>
  <circle cx="50" cy="64" r="2.2" fill="#7F1D1D"/>

  <!-- Neck -->
  <rect x="45" y="57" width="10" height="12" rx="5" fill="#FBBF88"/>

  <!-- Head -->
  <circle cx="50" cy="37" r="21" fill="#FBBF88"/>

  <!-- Ears -->
  <ellipse cx="29" cy="38" rx="3.5" ry="4.5" fill="#F5A264"/>
  <ellipse cx="71" cy="38" rx="3.5" ry="4.5" fill="#F5A264"/>

  <!-- Hair - dark, neat, side-parted -->
  <path d="M30 32 Q31 14 50 12 Q69 14 70 32 Q66 19 50 18 Q34 19 30 32 Z" fill="#1C1917"/>
  <path d="M30 32 Q28 38 29 44 Q28 37 30 32 Z" fill="#1C1917"/>
  <path d="M70 32 Q72 38 71 44 Q72 37 70 32 Z" fill="#1C1917"/>
  <!-- Side part detail -->
  <path d="M38 14 Q42 20 40 28" stroke="#2C2420" stroke-width="1.5" fill="none" stroke-linecap="round" opacity="0.6"/>

  <!-- Eyes: white sclera + dark iris + highlight -->
  <ellipse cx="42" cy="36" rx="4.5" ry="5" fill="white"/>
  <ellipse cx="58" cy="36" rx="4.5" ry="5" fill="white"/>
  <circle cx="43" cy="37" r="3"   fill="#1C1917"/>
  <circle cx="59" cy="37" r="3"   fill="#1C1917"/>
  <circle cx="44" cy="36" r="1.1" fill="white"/>
  <circle cx="60" cy="36" r="1.1" fill="white"/>

  <!-- Eyebrows - neat, arched -->
  <path d="M38 29 Q42 26 46 29" stroke="#1C1917" stroke-width="2.2" stroke-linecap="round" fill="none"/>
  <path d="M54 29 Q58 26 62 29" stroke="#1C1917" stroke-width="2.2" stroke-linecap="round" fill="none"/>

  <!-- Nose -->
  <ellipse cx="50" cy="42" rx="2" ry="1.8" fill="#E8906A"/>

  <!-- Mustache - classic thin mustache -->
  <path d="M43 46 Q46 43 50 46 Q54 43 57 46" stroke="#1C1917" stroke-width="2.5" fill="none" stroke-linecap="round"/>

  <!-- Warm smile -->
  <path d="M43 50 Q50 56 57 50" stroke="#C07A60" stroke-width="2" fill="none" stroke-linecap="round"/>
</svg>
